<?xml version="1.0" encoding="UTF-8" standalone="no"?>
<!DOCTYPE svg PUBLIC "-//W3C//DTD SVG 1.1//EN"
 "http://www.w3.org/Graphics/SVG/1.1/DTD/svg11.dtd">
<!-- Generated by graphviz version 2.38.0 (20140413.2041)
 -->
<!-- Title: snakemake_dag Pages: 1 -->
<svg width="1047pt" height="260pt"
 viewBox="0.00 0.00 1046.50 260.00" xmlns="http://www.w3.org/2000/svg" xmlns:xlink="http://www.w3.org/1999/xlink">
<g id="graph0" class="graph" transform="scale(1 1) rotate(0) translate(4 256)">
<title>snakemake_dag</title>
<polygon fill="white" stroke="none" points="-4,4 -4,-256 1042.5,-256 1042.5,4 -4,4"/>
<!-- 0 -->
<g id="node1" class="node"><title>0</title>
<path fill="none" stroke="#d88d56" stroke-width="2" d="M560,-36C560,-36 530,-36 530,-36 524,-36 518,-30 518,-24 518,-24 518,-12 518,-12 518,-6 524,-0 530,-0 530,-0 560,-0 560,-0 566,-0 572,-6 572,-12 572,-12 572,-24 572,-24 572,-30 566,-36 560,-36"/>
<text text-anchor="middle" x="545" y="-15.5" font-family="sans" font-size="10.00">all</text>
</g>
<!-- 1 -->
<g id="node2" class="node"><title>1</title>
<path fill="none" stroke="#56c1d8" stroke-width="2" d="M82,-108C82,-108 12,-108 12,-108 6,-108 -7.10543e-15,-102 -7.10543e-15,-96 -7.10543e-15,-96 -7.10543e-15,-84 -7.10543e-15,-84 -7.10543e-15,-78 6,-72 12,-72 12,-72 82,-72 82,-72 88,-72 94,-78 94,-84 94,-84 94,-96 94,-96 94,-102 88,-108 82,-108"/>
<text text-anchor="middle" x="47" y="-93" font-family="sans" font-size="10.00">plink_to_zarr</text>
<text text-anchor="middle" x="47" y="-82" font-family="sans" font-size="10.00">plink_contig: 22</text>
</g>
<!-- 1&#45;&gt;0 -->
<g id="edge1" class="edge"><title>1&#45;&gt;0</title>
<path fill="none" stroke="grey" stroke-width="2" d="M94.2051,-74.0337C97.1675,-73.2923 100.116,-72.6057 103,-72 251.087,-40.8951 431.198,-26.3674 507.727,-21.2544"/>
<polygon fill="grey" stroke="grey" stroke-width="2" points="508.074,-24.7393 517.824,-20.5946 507.617,-17.7542 508.074,-24.7393"/>
</g>
<!-- 2 -->
<g id="node3" class="node"><title>2</title>
<path fill="none" stroke="#56c1d8" stroke-width="2" d="M189.5,-108C189.5,-108 124.5,-108 124.5,-108 118.5,-108 112.5,-102 112.5,-96 112.5,-96 112.5,-84 112.5,-84 112.5,-78 118.5,-72 124.5,-72 124.5,-72 189.5,-72 189.5,-72 195.5,-72 201.5,-78 201.5,-84 201.5,-84 201.5,-96 201.5,-96 201.5,-102 195.5,-108 189.5,-108"/>
<text text-anchor="middle" x="157" y="-93" font-family="sans" font-size="10.00">plink_to_zarr</text>
<text text-anchor="middle" x="157" y="-82" font-family="sans" font-size="10.00">plink_contig: X</text>
</g>
<!-- 2&#45;&gt;0 -->
<g id="edge2" class="edge"><title>2&#45;&gt;0</title>
<path fill="none" stroke="grey" stroke-width="2" d="M201.683,-74.1355C204.485,-73.3688 207.274,-72.6488 210,-72 316.676,-46.6116 445.425,-30.1141 507.682,-23.0072"/>
<polygon fill="grey" stroke="grey" stroke-width="2" points="508.257,-26.4648 517.802,-21.8682 507.474,-19.5087 508.257,-26.4648"/>
</g>
<!-- 3 -->
<g id="node4" class="node"><title>3</title>
<path fill="none" stroke="#56c1d8" stroke-width="2" d="M302.5,-108C302.5,-108 231.5,-108 231.5,-108 225.5,-108 219.5,-102 219.5,-96 219.5,-96 219.5,-84 219.5,-84 219.5,-78 225.5,-72 231.5,-72 231.5,-72 302.5,-72 302.5,-72 308.5,-72 314.5,-78 314.5,-84 314.5,-84 314.5,-96 314.5,-96 314.5,-102 308.5,-108 302.5,-108"/>
<text text-anchor="middle" x="267" y="-93" font-family="sans" font-size="10.00">plink_to_zarr</text>
<text text-anchor="middle" x="267" y="-82" font-family="sans" font-size="10.00">plink_contig: XY</text>
</g>
<!-- 3&#45;&gt;0 -->
<g id="edge3" class="edge"><title>3&#45;&gt;0</title>
<path fill="none" stroke="grey" stroke-width="2" d="M314.531,-74.6134C317.73,-73.7101 320.909,-72.831 324,-72 388.201,-54.7416 463.627,-37.2421 507.69,-27.295"/>
<polygon fill="grey" stroke="grey" stroke-width="2" points="508.673,-30.6615 517.661,-25.0523 507.137,-23.8321 508.673,-30.6615"/>
</g>
<!-- 4 -->
<g id="node5" class="node"><title>4</title>
<path fill="none" stroke="#d85656" stroke-width="2" stroke-dasharray="5,2" d="M415,-108C415,-108 345,-108 345,-108 339,-108 333,-102 333,-96 333,-96 333,-84 333,-84 333,-78 339,-72 345,-72 345,-72 415,-72 415,-72 421,-72 427,-78 427,-84 427,-84 427,-96 427,-96 427,-102 421,-108 415,-108"/>
<text text-anchor="middle" x="380" y="-93" font-family="sans" font-size="10.00">bgen_to_zarr</text>
<text text-anchor="middle" x="380" y="-82" font-family="sans" font-size="10.00">bgen_contig: 22</text>
</g>
<!-- 4&#45;&gt;0 -->
<g id="edge4" class="edge"><title>4&#45;&gt;0</title>
<path fill="none" stroke="grey" stroke-width="2" d="M420.364,-71.8761C447.266,-60.463 482.34,-45.5832 508.424,-34.517"/>
<polygon fill="grey" stroke="grey" stroke-width="2" points="510.107,-37.6052 517.946,-30.4776 507.373,-31.1612 510.107,-37.6052"/>
</g>
<!-- 5 -->
<g id="node6" class="node"><title>5</title>
<path fill="none" stroke="#d85656" stroke-width="2" d="M522.5,-108C522.5,-108 457.5,-108 457.5,-108 451.5,-108 445.5,-102 445.5,-96 445.5,-96 445.5,-84 445.5,-84 445.5,-78 451.5,-72 457.5,-72 457.5,-72 522.5,-72 522.5,-72 528.5,-72 534.5,-78 534.5,-84 534.5,-84 534.5,-96 534.5,-96 534.5,-102 528.5,-108 522.5,-108"/>
<text text-anchor="middle" x="490" y="-93" font-family="sans" font-size="10.00">bgen_to_zarr</text>
<text text-anchor="middle" x="490" y="-82" font-family="sans" font-size="10.00">bgen_contig: X</text>
</g>
<!-- 5&#45;&gt;0 -->
<g id="edge5" class="edge"><title>5&#45;&gt;0</title>
<path fill="none" stroke="grey" stroke-width="2" d="M503.596,-71.6966C510.123,-63.3893 518.068,-53.2771 525.247,-44.1407"/>
<polygon fill="grey" stroke="grey" stroke-width="2" points="528.135,-46.1299 531.561,-36.1043 522.631,-41.8051 528.135,-46.1299"/>
</g>
<!-- 6 -->
<g id="node7" class="node"><title>6</title>
<path fill="none" stroke="#d85656" stroke-width="2" stroke-dasharray="5,2" d="M635.5,-108C635.5,-108 564.5,-108 564.5,-108 558.5,-108 552.5,-102 552.5,-96 552.5,-96 552.5,-84 552.5,-84 552.5,-78 558.5,-72 564.5,-72 564.5,-72 635.5,-72 635.5,-72 641.5,-72 647.5,-78 647.5,-84 647.5,-84 647.5,-96 647.5,-96 647.5,-102 641.5,-108 635.5,-108"/>
<text text-anchor="middle" x="600" y="-93" font-family="sans" font-size="10.00">bgen_to_zarr</text>
<text text-anchor="middle" x="600" y="-82" font-family="sans" font-size="10.00">bgen_contig: XY</text>
</g>
<!-- 6&#45;&gt;0 -->
<g id="edge6" class="edge"><title>6&#45;&gt;0</title>
<path fill="none" stroke="grey" stroke-width="2" d="M586.404,-71.6966C579.877,-63.3893 571.932,-53.2771 564.753,-44.1407"/>
<polygon fill="grey" stroke="grey" stroke-width="2" points="567.369,-41.8051 558.439,-36.1043 561.865,-46.1299 567.369,-41.8051"/>
</g>
<!-- 7 -->
<g id="node8" class="node"><title>7</title>
<path fill="none" stroke="#56d88a" stroke-width="2" stroke-dasharray="5,2" d="M771.5,-252C771.5,-252 674.5,-252 674.5,-252 668.5,-252 662.5,-246 662.5,-240 662.5,-240 662.5,-228 662.5,-228 662.5,-222 668.5,-216 674.5,-216 674.5,-216 771.5,-216 771.5,-216 777.5,-216 783.5,-222 783.5,-228 783.5,-228 783.5,-240 783.5,-240 783.5,-246 777.5,-252 771.5,-252"/>
<text text-anchor="middle" x="723" y="-231.5" font-family="sans" font-size="10.00">main_csv_to_parquet</text>
</g>
<!-- 7&#45;&gt;0 -->
<g id="edge7" class="edge"><title>7&#45;&gt;0</title>
<path fill="none" stroke="grey" stroke-width="2" d="M713.04,-215.637C707.386,-205.433 700.386,-192.183 695,-180 674.364,-133.325 690.258,-109.826 656,-72 636.433,-50.3943 606.174,-36.7609 582.189,-28.7407"/>
<polygon fill="grey" stroke="grey" stroke-width="2" points="582.932,-25.3054 572.343,-25.6402 580.83,-31.9822 582.932,-25.3054"/>
</g>
<!-- 9 -->
<g id="node10" class="node"><title>9</title>
<path fill="none" stroke="#568ad8" stroke-width="2" stroke-dasharray="5,2" d="M823.5,-180C823.5,-180 716.5,-180 716.5,-180 710.5,-180 704.5,-174 704.5,-168 704.5,-168 704.5,-156 704.5,-156 704.5,-150 710.5,-144 716.5,-144 716.5,-144 823.5,-144 823.5,-144 829.5,-144 835.5,-150 835.5,-156 835.5,-156 835.5,-168 835.5,-168 835.5,-174 829.5,-180 823.5,-180"/>
<text text-anchor="middle" x="770" y="-159.5" font-family="sans" font-size="10.00">extract_sample_qc_csv</text>
</g>
<!-- 7&#45;&gt;9 -->
<g id="edge11" class="edge"><title>7&#45;&gt;9</title>
<path fill="none" stroke="grey" stroke-width="2" d="M734.618,-215.697C740.139,-207.474 746.847,-197.483 752.932,-188.421"/>
<polygon fill="grey" stroke="grey" stroke-width="2" points="755.847,-190.358 758.516,-180.104 750.035,-186.456 755.847,-190.358"/>
</g>
<!-- 8 -->
<g id="node9" class="node"><title>8</title>
<path fill="none" stroke="#d8bc56" stroke-width="2" stroke-dasharray="5,2" d="M1026.5,-108C1026.5,-108 905.5,-108 905.5,-108 899.5,-108 893.5,-102 893.5,-96 893.5,-96 893.5,-84 893.5,-84 893.5,-78 899.5,-72 905.5,-72 905.5,-72 1026.5,-72 1026.5,-72 1032.5,-72 1038.5,-78 1038.5,-84 1038.5,-84 1038.5,-96 1038.5,-96 1038.5,-102 1032.5,-108 1026.5,-108"/>
<text text-anchor="middle" x="966" y="-87.5" font-family="sans" font-size="10.00">download_data_dictionary</text>
</g>
<!-- 8&#45;&gt;0 -->
<g id="edge8" class="edge"><title>8&#45;&gt;0</title>
<path fill="none" stroke="grey" stroke-width="2" d="M893.159,-73.7044C890.067,-73.1166 887.004,-72.5459 884,-72 774.854,-52.1665 645.112,-33.1421 582.497,-24.2452"/>
<polygon fill="grey" stroke="grey" stroke-width="2" points="582.713,-20.7409 572.321,-22.8046 581.731,-27.6718 582.713,-20.7409"/>
</g>
<!-- 9&#45;&gt;0 -->
<g id="edge9" class="edge"><title>9&#45;&gt;0</title>
<path fill="none" stroke="grey" stroke-width="2" d="M758.64,-143.964C744.635,-124.154 719.087,-91.6663 690,-72 656.785,-49.5431 612.878,-35.2342 582.115,-27.2188"/>
<polygon fill="grey" stroke="grey" stroke-width="2" points="582.771,-23.7752 572.221,-24.7391 581.07,-30.5652 582.771,-23.7752"/>
</g>
<!-- 10 -->
<g id="node11" class="node"><title>10</title>
<path fill="none" stroke="#59d856" stroke-width="2" stroke-dasharray="5,2" d="M863.5,-108C863.5,-108 754.5,-108 754.5,-108 748.5,-108 742.5,-102 742.5,-96 742.5,-96 742.5,-84 742.5,-84 742.5,-78 748.5,-72 754.5,-72 754.5,-72 863.5,-72 863.5,-72 869.5,-72 875.5,-78 875.5,-84 875.5,-84 875.5,-96 875.5,-96 875.5,-102 869.5,-108 863.5,-108"/>
<text text-anchor="middle" x="809" y="-87.5" font-family="sans" font-size="10.00">extract_sample_qc_zarr</text>
</g>
<!-- 9&#45;&gt;10 -->
<g id="edge12" class="edge"><title>9&#45;&gt;10</title>
<path fill="none" stroke="grey" stroke-width="2" d="M779.64,-143.697C784.127,-135.644 789.559,-125.894 794.524,-116.982"/>
<polygon fill="grey" stroke="grey" stroke-width="2" points="797.661,-118.544 799.47,-108.104 791.546,-115.137 797.661,-118.544"/>
</g>
<!-- 10&#45;&gt;0 -->
<g id="edge10" class="edge"><title>10&#45;&gt;0</title>
<path fill="none" stroke="grey" stroke-width="2" d="M744.756,-71.9656C693.714,-58.4317 624.127,-39.9807 581.998,-28.8101"/>
<polygon fill="grey" stroke="grey" stroke-width="2" points="582.726,-25.3822 572.163,-26.2023 580.932,-32.1484 582.726,-25.3822"/>
</g>
</g>
</svg>
